<mxfile host="app.diagrams.net" modified="2024-02-15T20:07:30.204Z" agent="Mozilla/5.0 (Windows NT 10.0; Win64; x64) AppleWebKit/537.36 (KHTML, like Gecko) Chrome/121.0.0.0 Safari/537.36" etag="gsGzeRcOwIHl_5cWc7aL" version="23.1.5" type="device">
  <diagram name="PÃ¡gina-1" id="ZVmTzCGUi93rbPDPO5i-">
    <mxGraphModel dx="2868" dy="1580" grid="1" gridSize="10" guides="1" tooltips="1" connect="1" arrows="1" fold="1" page="1" pageScale="1" pageWidth="827" pageHeight="1169" math="0" shadow="0">
      <root>
        <mxCell id="0" />
        <mxCell id="1" parent="0" />
        <mxCell id="3Yn_yZ1p5lrfyFrG8p4H-1" value="&lt;font style=&quot;font-size: 15px;&quot;&gt;Process .xlsx file&lt;/font&gt;" style="whiteSpace=wrap;html=1;aspect=fixed;fillColor=#f5f5f5;fontColor=#333333;strokeColor=#666666;" vertex="1" parent="1">
          <mxGeometry x="279" y="485" width="200" height="200" as="geometry" />
        </mxCell>
        <mxCell id="3Yn_yZ1p5lrfyFrG8p4H-3" value="&lt;font style=&quot;font-size: 15px;&quot;&gt;&amp;nbsp;My hand-loaded .xlsx file&lt;/font&gt;" style="html=1;shadow=0;dashed=0;align=left;verticalAlign=middle;shape=mxgraph.arrows2.arrow;dy=0.6;dx=40;notch=0;fillColor=#ffe6cc;strokeColor=#d79b00;" vertex="1" parent="1">
          <mxGeometry x="49" y="545" width="210" height="100" as="geometry" />
        </mxCell>
        <mxCell id="3Yn_yZ1p5lrfyFrG8p4H-4" value="&lt;font style=&quot;font-size: 15px;&quot;&gt;&amp;nbsp;Output to load into NetSuite&lt;br&gt;&amp;nbsp;Output to load into collaborative Excel&lt;br&gt;&lt;/font&gt;" style="html=1;shadow=0;dashed=0;align=left;verticalAlign=middle;shape=mxgraph.arrows2.arrow;dy=0.6;dx=40;notch=0;fillColor=#d5e8d4;strokeColor=#82b366;" vertex="1" parent="1">
          <mxGeometry x="499" y="510" width="280" height="150" as="geometry" />
        </mxCell>
        <mxCell id="3Yn_yZ1p5lrfyFrG8p4H-6" value="INPUTS" style="text;html=1;align=center;verticalAlign=middle;resizable=0;points=[];autosize=1;strokeColor=none;fillColor=none;fontStyle=1" vertex="1" parent="1">
          <mxGeometry x="104" y="535" width="70" height="30" as="geometry" />
        </mxCell>
        <mxCell id="3Yn_yZ1p5lrfyFrG8p4H-7" value="OUTPUTS" style="text;html=1;align=center;verticalAlign=middle;resizable=0;points=[];autosize=1;strokeColor=none;fillColor=none;fontStyle=1" vertex="1" parent="1">
          <mxGeometry x="569" y="515" width="80" height="30" as="geometry" />
        </mxCell>
      </root>
    </mxGraphModel>
  </diagram>
</mxfile>
